<?xml version="1.0" standalone="no"?>
<!DOCTYPE svg PUBLIC "-//W3C//DTD SVG 20010904//EN"
 "http://www.w3.org/TR/2001/REC-SVG-20010904/DTD/svg10.dtd">
<svg version="1.0" xmlns="http://www.w3.org/2000/svg"
 width="300.000000pt" height="256.000000pt" viewBox="0 0 300.000000 256.000000"
 preserveAspectRatio="xMidYMid meet">
<metadata>
Created by potrace 1.10, written by Peter Selinger 2001-2011
</metadata>
<g transform="translate(0.000000,256.000000) scale(0.100000,-0.100000)"
fill="#000000" stroke="none">
<path d="M1401 2330 c-301 -42 -559 -233 -683 -507 -55 -121 -71 -203 -71
-358 0 -112 5 -156 22 -219 21 -80 95 -246 109 -246 4 0 43 33 87 72 44 40
108 94 142 120 50 39 70 64 108 134 26 47 44 88 41 91 -3 3 -35 -18 -72 -47
-102 -81 -133 -71 -153 46 -13 70 -8 84 52 190 22 39 24 40 45 26 14 -9 22
-25 22 -44 0 -16 3 -28 8 -26 4 2 21 10 37 18 17 8 33 19 38 25 6 9 49 143 92
290 23 78 28 82 64 56 37 -27 38 -34 11 -194 -12 -66 -19 -122 -16 -124 3 -3
51 26 108 64 125 84 156 97 199 79 30 -13 66 -65 52 -75 -5 -3 -14 -18 -22
-34 -8 -15 -28 -35 -45 -45 -37 -22 -167 -134 -162 -139 7 -7 116 46 116 56 0
5 14 12 30 16 36 8 124 -30 116 -50 -2 -7 1 -18 7 -24 8 -8 8 -11 0 -11 -6 0
-16 -12 -21 -27 -5 -16 -13 -36 -17 -47 -7 -15 -5 -17 12 -12 19 6 94 17 123
17 57 2 148 -6 145 -11 -2 -4 9 -7 25 -8 16 0 37 -5 47 -11 17 -9 17 -10 0
-17 -10 -3 -37 -2 -60 4 -52 13 -283 23 -247 11 20 -7 18 -8 -12 -4 -30 3 -40
0 -48 -15 -12 -22 -13 -41 -2 -22 10 15 231 39 240 26 4 -5 31 -10 59 -11 29
-1 67 -10 85 -19 18 -9 40 -18 48 -19 50 -5 90 -39 114 -97 9 -20 21 -38 28
-40 8 -3 12 -30 12 -79 1 -100 -40 -190 -122 -268 -57 -54 -57 -54 -8 -15 105
83 231 290 272 449 23 87 26 321 5 405 -65 264 -252 490 -496 601 -130 59
-327 88 -464 69z m283 -34 c38 -8 72 -19 75 -23 3 -4 17 -9 29 -11 40 -4 207
-91 224 -116 9 -13 0 -27 -15 -25 -7 2 -71 -1 -144 -6 -106 -6 -135 -11 -148
-25 -13 -15 -16 -51 -15 -246 0 -126 2 -242 5 -259 4 -35 -2 -49 -18 -37 -7 5
-33 15 -58 22 l-47 14 24 19 c13 10 36 39 50 63 24 41 25 48 13 72 -19 37 -29
46 -66 61 -42 17 -85 3 -178 -58 -38 -25 -78 -49 -89 -54 -16 -6 -17 -4 -12
15 4 13 9 45 12 71 3 27 9 58 13 69 13 37 -4 98 -35 124 -59 47 -76 29 -119
-127 -41 -148 -73 -226 -95 -232 -12 -3 -20 0 -20 7 0 15 -27 40 -52 49 -19 7
-61 -30 -52 -45 3 -4 1 -8 -4 -8 -4 0 -19 -21 -33 -47 -43 -85 -25 -229 32
-258 33 -18 59 -13 102 17 31 22 35 10 10 -30 -21 -32 -45 -55 -108 -102 -48
-36 -72 -56 -144 -123 l-40 -37 -30 64 c-58 126 -73 191 -79 334 -4 134 4 211
34 301 45 133 112 239 224 349 115 114 256 187 420 218 13 3 27 7 29 10 11 10
243 3 305 -10z m366 -176 c0 -5 -4 -10 -10 -10 -5 0 -10 5 -10 10 0 6 5 10 10
10 6 0 10 -4 10 -10z m143 -151 c20 -26 60 -91 62 -99 0 -3 10 -23 22 -45 87
-169 105 -404 46 -600 -21 -69 -65 -165 -73 -160 -4 2 -10 28 -13 57 -4 29
-16 65 -27 80 -11 15 -20 34 -20 42 0 32 -144 134 -230 163 -40 14 -175 18
-237 8 -37 -6 -43 -5 -43 9 0 11 5 14 12 10 7 -4 8 -3 4 5 -4 6 -2 18 4 26 6
8 8 20 4 26 -4 8 -3 9 4 5 7 -4 12 -3 12 2 0 6 14 7 34 2 19 -4 37 -6 39 -3 3
2 42 6 88 9 52 4 90 11 99 20 22 21 0 36 -62 41 -51 4 -87 9 -98 14 -3 1 13 5
35 8 22 4 48 3 57 -1 24 -11 43 -1 58 30 l12 27 10 -25 c19 -47 25 -55 44 -55
15 0 20 8 22 38 2 20 6 37 10 37 4 0 7 48 7 108 0 59 5 113 10 121 7 11 7 13
-2 8 -9 -6 -11 18 -9 93 2 55 -1 103 -5 106 -5 3 -9 12 -9 20 0 14 92 -74 133
-127z m-158 117 c11 -11 14 -55 15 -202 0 -211 -8 -323 -22 -302 -4 7 -8 47
-7 88 0 41 0 147 0 236 l-1 160 -43 -3 c-23 -2 -82 -5 -130 -7 -49 -3 -90 -6
-92 -8 -3 -3 -8 -89 -5 -98 0 -3 3 -76 5 -163 4 -123 2 -156 -8 -151 -6 4 -4
-1 5 -12 12 -14 14 -24 7 -36 -12 -22 21 -44 39 -26 8 8 12 8 12 2 0 -10 69
-18 139 -16 19 0 30 -3 25 -8 -5 -5 -63 -10 -129 -11 l-120 -3 -2 25 c-1 13
-5 133 -9 266 -8 281 -9 277 70 271 28 -2 67 -1 86 3 65 12 151 10 165 -5z
m-40 -63 c3 -10 0 -11 -13 -5 -9 5 -24 12 -32 15 -8 3 -3 5 12 4 15 -1 30 -7
33 -14z m-185 3 c0 -2 -7 -6 -15 -10 -8 -3 -15 -1 -15 4 0 6 7 10 15 10 8 0
15 -2 15 -4z m40 -16 c0 -5 24 -7 59 -4 38 4 61 2 65 -5 5 -7 -2 -11 -18 -11
-31 0 -34 -15 -5 -23 17 -5 20 -12 17 -49 l-3 -43 -40 1 c-39 1 -40 2 -43 38
-2 21 -10 40 -18 43 -7 3 -11 10 -8 15 4 6 9 6 14 -2 6 -9 13 -9 31 1 24 14
24 14 -10 17 -18 2 -38 -1 -43 -6 -10 -10 0 -42 13 -42 5 0 6 -13 3 -29 -7
-35 15 -51 70 -51 20 0 36 -4 36 -10 0 -14 -55 -12 -93 4 -28 11 -36 11 -52 0
-21 -16 -35 -18 -35 -6 0 5 10 14 23 20 17 8 18 11 5 11 -23 1 -22 7 0 29 10
10 25 16 33 14 11 -4 12 -2 2 9 -10 10 -16 9 -31 -4 -30 -27 -38 -20 -11 10
19 21 20 25 6 20 -13 -5 -17 -3 -14 5 2 7 10 12 16 11 6 -2 11 2 11 8 0 6 -9
8 -21 4 -15 -5 -19 -4 -15 4 4 6 14 11 22 11 8 0 14 5 14 10 0 6 5 10 10 10 6
0 10 -4 10 -10z m88 -184 c45 -1 53 -4 57 -21 7 -35 1 -154 -7 -149 -4 3 -5
17 -2 31 5 16 3 24 -3 20 -6 -4 -9 4 -7 21 2 15 -2 37 -8 50 -10 19 -19 22
-66 22 -70 0 -92 -18 -93 -74 0 -23 -4 -50 -8 -61 -8 -20 -8 -20 -13 0 -3 11
-6 52 -6 92 l-1 72 34 -3 c20 -1 31 2 28 7 -4 7 3 7 18 2 13 -5 48 -9 77 -9z
m8 -61 c-16 -12 -17 -15 -4 -15 11 0 15 -6 11 -20 -4 -16 -13 -20 -47 -18
l-41 1 38 4 c20 2 37 8 37 14 0 12 -87 12 -95 -1 -3 -5 -2 -10 3 -10 12 0 1
-55 -17 -88 -6 -12 -16 -22 -21 -22 -14 0 -12 12 5 34 8 11 15 39 15 63 l0 43
47 0 c25 0 43 3 40 7 -4 3 -25 6 -48 5 -24 -1 -38 2 -34 8 3 6 34 10 68 10 57
-1 60 -2 43 -15z m5 -75 c11 0 18 -4 15 -9 -3 -4 -18 -7 -33 -5 l-28 4 28 -11
c15 -6 27 -16 27 -23 0 -21 -26 -49 -38 -42 -15 9 -15 27 -1 24 6 -2 14 3 16
10 8 22 -30 13 -58 -14 -15 -14 -30 -21 -33 -16 -3 5 5 17 19 26 27 18 35 49
10 40 -8 -4 -15 -1 -15 4 0 12 37 21 58 16 8 -2 23 -4 33 -4z m121 -356 c21
-15 36 -29 33 -32 -3 -3 -13 2 -23 11 -21 19 -37 23 -26 6 3 -6 -8 -3 -26 6
-25 13 -30 19 -19 26 19 12 18 12 61 -17z"/>
<path d="M1892 1923 c1 -37 1 -37 5 -6 3 19 11 34 21 36 12 3 10 5 -5 6 -20 1
-23 -3 -21 -36z"/>
<path d="M1940 1926 c0 -20 5 -36 10 -36 6 0 10 13 10 29 0 17 -4 33 -10 36
-6 4 -10 -8 -10 -29z"/>
<path d="M1830 1900 c0 -5 5 -10 10 -10 6 0 10 5 10 10 0 6 -4 10 -10 10 -5 0
-10 -4 -10 -10z"/>
<path d="M1910 1900 c0 -5 5 -10 10 -10 6 0 10 5 10 10 0 6 -4 10 -10 10 -5 0
-10 -4 -10 -10z"/>
<path d="M2025 1340 c3 -5 11 -10 16 -10 6 0 7 5 4 10 -3 6 -11 10 -16 10 -6
0 -7 -4 -4 -10z"/>
<path d="M1405 1347 c-135 -71 -164 -95 -197 -160 -43 -86 -98 -260 -104 -331
-7 -81 -20 -104 -57 -108 -28 -3 -25 -6 46 -45 42 -22 77 -40 77 -38 0 2 -5
16 -10 31 -8 21 -7 31 6 45 12 13 13 22 5 38 -17 31 -14 39 25 53 34 12 35 13
16 28 -41 33 -56 96 -28 119 8 7 17 24 21 39 3 15 15 37 26 48 11 12 19 25 17
30 -4 16 13 52 27 58 8 3 12 12 9 20 -13 35 25 75 129 133 57 32 89 65 75 78
-2 2 -39 -15 -83 -38z m-168 -201 c-11 -23 -26 -44 -31 -48 -7 -5 -5 -8 4 -8
13 0 13 -1 0 -10 -29 -18 -28 -10 3 60 18 41 34 65 38 58 4 -6 -2 -30 -14 -52z
m-48 -93 c0 -5 -4 -17 -9 -28 -8 -18 -9 -17 -9 8 -1 15 4 27 9 27 6 0 10 -3 9
-7z m-19 -198 c0 -7 -7 -16 -16 -19 -12 -5 -15 -15 -11 -39 5 -36 -10 -77 -29
-77 -23 0 -28 23 -8 39 14 11 20 31 22 66 1 28 4 59 6 70 3 11 5 25 6 30 1 13
30 -53 30 -70z"/>
<path d="M1685 1329 c-3 -4 3 -10 12 -12 10 -3 -1 -5 -25 -4 -53 1 -64 -11
-87 -92 -60 -224 -43 -376 48 -423 33 -16 55 -19 122 -16 77 3 85 5 164 53 87
52 168 131 202 198 11 20 17 37 15 37 -3 0 1 17 8 38 16 46 5 82 -40 124 -30
28 -113 68 -142 68 -15 0 -15 2 -2 11 11 8 2 9 -35 6 -27 -3 -57 -1 -67 4 -10
5 -27 5 -43 -1 -19 -7 -24 -7 -19 2 5 8 2 9 -10 5 -34 -13 -72 -19 -58 -9 11
7 7 11 -12 14 -15 3 -29 2 -31 -3z m250 -37 c-3 -3 25 -16 62 -29 66 -22 133
-77 133 -107 -1 -32 -23 -103 -37 -118 -9 -10 -13 -18 -9 -18 4 0 1 -6 -6 -13
-7 -8 -24 -28 -37 -45 -25 -34 -148 -121 -197 -141 -47 -18 -114 -23 -167 -10
-63 15 -98 66 -104 152 -5 57 9 166 26 217 5 14 14 43 21 66 11 36 15 40 48
42 20 2 37 4 38 5 1 1 55 2 118 3 64 1 114 -1 111 -4z"/>
<path d="M1395 1270 c-3 -5 -2 -10 4 -10 5 0 13 5 16 10 3 6 2 10 -4 10 -5 0
-13 -4 -16 -10z"/>
<path d="M1389 1220 c-21 -18 -22 -19 -4 -14 15 5 13 0 -10 -21 l-30 -27 30
17 c17 10 39 25 50 32 19 14 19 15 -5 7 -22 -6 -23 -5 -11 10 18 22 8 20 -20
-4z"/>
<path d="M1390 1161 c-21 -11 -33 -23 -31 -32 18 -61 13 -77 -32 -126 -43 -46
-44 -49 -29 -72 10 -15 16 -46 17 -87 0 -43 4 -64 12 -64 23 0 82 -64 81 -87
-1 -13 -8 -23 -16 -23 -7 0 -11 -4 -8 -9 8 -12 -24 -23 -38 -14 -6 5 -38 6
-71 3 -68 -6 -60 -11 55 -35 86 -18 259 -21 339 -5 71 13 194 50 188 56 -2 2
-28 -1 -57 -7 -73 -16 -209 0 -231 27 -6 8 -17 14 -24 14 -16 0 -80 72 -102
115 -23 44 -33 158 -22 264 5 52 8 95 7 97 -2 1 -19 -6 -38 -15z m24 -339 c14
-39 125 -165 141 -161 14 3 64 -24 59 -32 -6 -10 -197 -13 -207 -3 -3 4 1 17
10 30 15 23 12 94 -5 94 -4 0 -21 13 -39 28 -23 20 -32 37 -31 58 0 16 -5 49
-11 73 -7 23 -11 45 -9 47 2 2 17 19 33 38 l30 33 7 -81 c3 -44 13 -100 22
-124z"/>
<path d="M919 1021 c-49 -43 -84 -82 -81 -89 5 -14 81 -8 113 9 15 7 66 147
57 154 -2 1 -42 -32 -89 -74z m23 -53 c-6 -6 -19 -7 -29 -4 -16 7 -16 9 7 28
23 19 25 19 28 3 2 -9 -1 -22 -6 -27z"/>
<path d="M910 835 c29 -30 55 -53 57 -51 2 1 -7 21 -19 44 -20 36 -57 62 -87
62 -3 0 19 -25 49 -55z"/>
<path d="M995 760 c3 -5 8 -10 11 -10 2 0 4 5 4 10 0 6 -5 10 -11 10 -5 0 -7
-4 -4 -10z"/>
<path d="M1981 740 c-59 -39 -65 -48 -13 -19 24 13 48 29 54 36 14 18 9 16
-41 -17z"/>
<path d="M1900 690 c-9 -6 -10 -10 -3 -10 6 0 15 5 18 10 8 12 4 12 -15 0z"/>
<path d="M781 299 c-56 -121 -55 -119 -43 -119 6 0 16 16 22 35 11 34 13 35
64 35 50 0 52 -1 65 -35 7 -19 17 -35 22 -35 13 0 14 -2 -39 110 l-48 103 -43
-94z m68 -37 c-10 -2 -29 -2 -42 0 l-24 3 20 45 20 44 22 -44 c22 -43 22 -45
4 -48z"/>
<path d="M1013 380 c-50 -20 -35 -90 22 -104 14 -4 30 -16 36 -27 9 -18 7 -25
-10 -42 -17 -18 -24 -19 -47 -8 -29 13 -48 6 -24 -9 41 -26 100 -3 100 39 0
30 -18 50 -62 69 -55 23 -23 86 33 65 17 -7 29 -7 29 -2 0 7 -45 31 -53 28 -1
0 -12 -4 -24 -9z"/>
<path d="M1430 286 c0 -64 4 -106 10 -106 6 0 10 40 10 99 0 56 -4 103 -10
106 -6 4 -10 -32 -10 -99z"/>
<path d="M318 280 c-26 -55 -42 -100 -37 -100 6 0 17 16 25 35 14 33 17 35 65
35 48 0 51 -2 65 -35 8 -19 18 -35 23 -35 5 0 -11 45 -36 100 -26 55 -49 100
-53 100 -3 0 -27 -45 -52 -100z m72 33 c8 -21 16 -41 18 -45 2 -5 -15 -8 -38
-8 -23 0 -40 3 -38 8 2 4 10 24 18 45 8 20 17 37 20 37 3 0 12 -17 20 -37z"/>
<path d="M535 280 c0 -55 3 -100 8 -100 4 0 7 23 7 50 0 47 2 50 25 50 19 0
34 -13 61 -50 20 -27 40 -50 46 -50 5 0 -6 23 -26 50 -36 50 -36 50 -16 70 24
24 24 29 4 58 -12 17 -25 22 -62 22 l-47 0 0 -100z m89 74 c9 -8 16 -19 16
-24 0 -18 -33 -40 -61 -40 -27 0 -29 2 -29 40 0 38 2 40 29 40 16 0 37 -7 45
-16z"/>
<path d="M1170 280 c0 -60 4 -100 10 -100 6 0 10 21 10 48 l0 47 65 0 65 0 0
-47 c0 -27 5 -48 10 -48 6 0 10 40 10 100 0 60 -4 100 -10 100 -5 0 -10 -20
-10 -45 l0 -45 -65 0 -65 0 0 45 c0 25 -4 45 -10 45 -6 0 -10 -40 -10 -100z"/>
<path d="M1660 280 c0 -60 4 -100 10 -100 6 0 10 23 10 50 0 43 3 50 20 50 24
0 53 -27 75 -69 8 -17 20 -31 26 -31 11 0 10 2 -28 63 -21 34 -22 39 -8 53 38
39 6 84 -61 84 l-44 0 0 -100z m81 80 c39 -21 16 -70 -33 -70 -26 0 -28 3 -28
40 0 34 3 40 21 40 11 0 29 -5 40 -10z"/>
<path d="M1940 376 c0 -2 -20 -47 -45 -100 -24 -53 -40 -96 -35 -96 5 0 16 16
24 35 14 33 17 35 64 35 45 0 49 -2 65 -35 9 -19 21 -35 26 -35 5 0 -11 45
-37 100 -25 55 -50 100 -54 100 -4 0 -8 -2 -8 -4z m30 -63 c8 -21 16 -41 18
-45 2 -5 -15 -8 -38 -8 -36 0 -41 2 -35 18 4 9 12 29 17 45 13 36 21 34 38
-10z"/>
<path d="M2110 280 c0 -60 4 -100 10 -100 6 0 10 36 10 88 l1 87 38 -45 39
-45 24 29 c12 17 28 37 35 45 10 13 12 -1 13 -71 0 -52 4 -88 10 -88 6 0 10
40 10 100 0 55 -4 100 -9 100 -5 0 -26 -20 -47 -45 l-39 -46 -35 45 c-53 68
-60 62 -60 -54z"/>
<path d="M2390 280 l0 -100 55 0 c30 0 55 4 55 9 0 5 -20 6 -45 3 l-45 -5 0
37 c0 20 -1 39 -2 43 -2 4 18 6 45 4 29 -1 47 2 47 8 0 6 -20 11 -48 11 l-48
0 4 39 c4 40 4 40 51 44 44 3 44 3 -11 5 l-58 2 0 -100z"/>
<path d="M2580 280 c0 -55 3 -100 8 -100 4 0 6 39 4 87 -4 101 -8 101 88 -12
36 -41 68 -75 72 -75 5 0 8 45 8 100 0 65 -4 100 -11 100 -7 0 -9 -29 -7 -85
2 -47 1 -85 -2 -84 -3 0 -36 38 -75 85 -38 46 -73 84 -77 84 -5 0 -8 -45 -8
-100z"/>
</g>
</svg>
